<?xml version="1.0" encoding="UTF-8" standalone="no"?>
<!DOCTYPE svg PUBLIC "-//W3C//DTD SVG 1.1//EN" "http://www.w3.org/Graphics/SVG/1.1/DTD/svg11.dtd">
<svg version="1.1" xmlns="http://www.w3.org/2000/svg" xmlns:xlink="http://www.w3.org/1999/xlink" preserveAspectRatio="xMidYMid meet" viewBox="33.13433908045977 218.80097969132652 299.2431752873563 183.48009071097232" width="82.25" height="50"><defs><path d="M329.38 367.27C329.38 384.94 263.23 399.28 181.76 399.28C100.28 399.28 34.13 384.94 34.13 367.27C34.13 349.6 100.28 335.25 181.76 335.25C263.23 335.25 329.38 349.6 329.38 367.27Z" id="f61godia80"></path><path d="M260.92 256.12L232.19 256.12L232.19 239.72L260.92 239.72L256.13 247.92L260.92 256.12Z" id="a18tFp6hgk"></path><path d="M229.79 239.72L234.58 239.72L234.58 276.61L229.79 276.61L229.79 239.72Z" id="a14C8ZP57"></path><path d="M299.22 362.69L299.22 348.35C298.83 348.2 298.61 348.11 298.56 348.1C271.02 337.62 248.21 319.75 233.58 297.2C233.48 297.06 233.02 296.34 232.19 295.06C231.35 296.34 230.89 297.06 230.8 297.2C216.16 319.75 193.35 337.62 165.81 348.1C165.77 348.11 165.55 348.2 165.15 348.35L165.15 362.69" id="i1lxNZ3gik"></path><path d="M299.22 362.69C286.79 354.71 271.67 350.4 256.13 350.4C240.59 350.4 225.47 354.71 213.03 362.69" id="h2KT7XrlHw"></path><path d="M251.34 362.69C238.91 354.71 223.79 350.4 208.25 350.4C192.71 350.4 177.58 354.71 165.15 362.69" id="ew4RFA1nK"></path><path d="M179.52 342.2L227.4 342.2L227.4 302.15" id="b19hLMUcUX"></path><path d="M284.86 342.2L236.98 342.2L236.98 302.15" id="agbgxSU0z"></path><path d="M299.22 348.35C298.83 348.2 298.61 348.11 298.56 348.1C271.02 337.62 248.21 319.75 233.58 297.2C233.48 297.06 233.02 296.34 232.19 295.06C231.35 296.34 230.89 297.06 230.8 297.2C216.16 319.75 193.35 337.62 165.81 348.1C165.77 348.11 165.55 348.2 165.15 348.35L165.15 323.94C169.37 322.3 171.72 321.38 172.18 321.2C198.55 310.94 219.8 292.99 232.14 270.55C232.14 270.55 232.16 270.52 232.19 270.47C232.22 270.52 232.23 270.55 232.23 270.55C244.57 292.99 265.82 310.94 292.19 321.2C292.66 321.38 295 322.3 299.22 323.94L299.22 348.35Z" id="b10JPVOytw"></path><path d="M118.52 372.52C121.4 379.67 123.01 383.65 123.33 384.44C123.4 384.63 123.56 384.74 123.74 384.74C125.41 384.74 133.66 384.74 133.37 384.74C133.04 384.74 122.72 371.31 122.72 371.31C122.16 371.47 120.76 371.87 118.52 372.52Z" id="cTIYF4Zc3"></path><path d="M121.2 371.31C121.14 371.47 111.9 380.86 108.97 383.84C108.65 384.16 108.85 384.74 109.27 384.74C110.15 384.74 117.19 384.74 118.07 384.74C118.23 384.74 118.37 384.65 118.46 384.49C118.9 383.67 121.1 379.53 125.06 372.09C123 371.67 121.71 371.41 121.2 371.31Z" id="eE5awVp0A"></path><path d="M121.15 369.14L125.06 372.09C109.09 379.66 100.22 383.86 98.44 384.7C98.39 384.73 98.33 384.74 98.27 384.74C97.66 384.74 92.79 384.74 92.18 384.74C91.93 384.74 91.72 384.51 91.72 384.23C91.72 383.68 91.72 379.3 91.72 378.75C91.72 378.52 91.86 378.31 92.06 378.25C92.06 378.25 101.76 375.22 121.15 369.14Z" id="eqKRM8Kp3"></path><path d="M117.03 365.8L113.33 368.49C131.42 378.21 141.47 383.61 143.48 384.69C143.55 384.73 143.61 384.74 143.68 384.74C144.29 384.74 149.15 384.74 149.75 384.74C150.01 384.74 150.21 384.51 150.21 384.23C150.21 383.68 150.21 379.28 150.21 378.73C150.21 378.51 150.08 378.31 149.9 378.24C145.52 376.58 134.56 372.43 117.03 365.8Z" id="aS5SEDsod"></path><path d="M120.97 372.95C115.3 372.95 110.71 369.92 110.71 363.24C110.71 356.56 119.31 343.43 120.97 343.43C122.63 343.43 131.23 356.56 131.23 363.24C131.23 369.92 126.63 372.95 120.97 372.95Z" id="a2BuV1mZF6"></path><path d="M119.2 344.92C122.26 348.55 127.7 357.93 127.7 363.24C127.7 369.21 124.03 372.27 119.2 372.85C119.78 372.92 120.37 372.95 120.97 372.95C126.63 372.95 131.23 369.92 131.23 363.24C131.23 356.56 122.63 343.43 120.97 343.43C120.63 343.43 119.99 343.98 119.2 344.92Z" id="aiUSbyrHB"></path><path d="M131.48 328.67C131.43 328.64 131.4 328.6 131.38 328.55C131.11 327.96 129.38 323.96 131.58 321.47C134.77 317.85 139.09 318.57 139.95 318.76C140.05 318.78 140.12 318.86 140.14 318.96C140.3 319.94 140.93 324.82 137.74 328.44C135.54 330.92 132 328.97 131.48 328.67Z" id="b1K3oPaCmi"></path><path d="M139.95 318.76C139.49 318.66 138.06 318.41 136.34 318.74C136.37 318.74 136.4 318.75 136.42 318.76C136.52 318.78 136.59 318.86 136.61 318.96C136.77 319.94 137.4 324.82 134.21 328.44C133.83 328.86 133.42 329.15 132.99 329.35C134.36 329.8 136.32 330.03 137.74 328.44C140.93 324.82 140.3 319.94 140.14 318.96C140.12 318.86 140.05 318.78 139.95 318.76Z" id="e10elADZQn"></path><path d="M109.96 338.51C109.93 338.55 109.9 338.59 109.86 338.62C109.34 338.93 105.79 340.88 103.6 338.39C100.4 334.77 101.03 329.89 101.2 328.92C101.21 328.81 101.29 328.73 101.38 328.71C102.24 328.52 106.56 327.81 109.75 331.42C111.95 333.91 110.23 337.92 109.96 338.51Z" id="gubvVhr2d"></path><path d="M101.46 328.69C102.98 328.98 104.72 329.73 106.22 331.42C108.42 333.91 106.7 337.92 106.43 338.51C106.4 338.55 106.37 338.59 106.33 338.62C106.14 338.73 105.57 339.05 104.81 339.3C106.91 340.26 109.43 338.87 109.86 338.62C109.9 338.59 109.93 338.55 109.96 338.51C110.23 337.92 111.95 333.91 109.75 331.42C106.64 327.9 102.47 328.49 101.46 328.69Z" id="cuDvWHqEl"></path><path d="M136.45 321.55C135.69 322.41 129.65 329.25 128.89 330.11C128.56 330.49 128.56 331.1 128.89 331.48C129.23 331.86 129.77 331.86 130.1 331.48C130.86 330.62 136.91 323.78 137.66 322.93C138 322.55 138 321.93 137.66 321.55C137.33 321.18 136.78 321.18 136.45 321.55Z" id="b2YNH6JDBp"></path><path d="M104.88 331.51C104.55 331.13 104.01 331.13 103.67 331.51C103.34 331.89 103.34 332.5 103.67 332.88C104.43 333.73 110.47 340.58 111.23 341.43C111.56 341.81 112.11 341.81 112.44 341.43C112.78 341.05 112.78 340.44 112.44 340.06C110.93 338.35 106.39 333.22 104.88 331.51Z" id="a1TuvcfuOP"></path><path d="M130.38 237.08C133.69 237.08 135.53 237.08 135.9 237.08C137.96 233.64 141.49 231.03 145.72 229.95C144.87 228.07 142.83 226.75 140.46 226.75C139.87 226.75 139.3 226.83 138.76 226.98C138.76 226.9 138.77 226.83 138.77 226.75C138.77 222.91 135.34 219.8 131.12 219.8C127.48 219.8 124.44 222.11 123.67 225.21C123.22 225.07 122.73 225 122.22 225C120.66 225 119.28 225.71 118.45 226.79C117.99 226.69 117.5 226.63 117 226.63C113.83 226.63 111.25 228.97 111.25 231.85C111.25 234.74 113.83 237.08 117 237.08C117.62 237.08 120.68 237.08 126.19 237.08" id="cevezpXML"></path><path d="M161.78 233.92C158.82 231.04 154.62 229.25 149.95 229.25C142.24 229.25 135.8 234.15 134.17 240.71C133.2 240.41 132.17 240.25 131.09 240.25C127.78 240.25 124.86 241.76 123.11 244.06C122.13 243.83 121.1 243.7 120.05 243.7C113.32 243.7 107.87 248.66 107.87 254.77C107.87 260.88 113.32 265.84 120.05 265.84C121.39 265.84 132.13 265.84 133.47 265.84C133.5 262.07 136.86 259.03 141 259.03C141.79 259.03 142.55 259.14 143.26 259.35C143.25 259.24 143.25 259.14 143.25 259.03C143.25 253.95 147.79 249.82 153.38 249.82C158.21 249.82 162.24 252.89 163.27 257C163.87 256.81 164.52 256.71 165.19 256.71C167.26 256.71 169.09 257.65 170.19 259.09C170.8 258.95 171.45 258.87 172.11 258.87C174.88 258.87 177.31 260.22 178.65 262.24C180.58 260.3 181.76 257.72 181.76 254.9C181.76 248.86 176.37 243.96 169.72 243.96C168.47 243.96 167.26 244.14 166.12 244.46C166.13 244.29 166.14 244.13 166.14 243.96C166.14 241.49 165.47 239.16 164.28 237.12" id="c16SK6DcwZ"></path><path d="M120.05 243.7C113.32 243.7 107.87 248.66 107.87 254.77C107.87 260.88 113.32 265.84 120.05 265.84C121.39 265.84 132.13 265.84 133.47 265.84C133.48 264.66 133.81 263.55 134.4 262.58C127.77 257.94 122.88 251.34 120.78 243.72C120.54 243.71 120.29 243.7 120.05 243.7Z" id="b4Ty2JD3yf"></path><path d="M121.38 225.07C120.17 225.27 119.12 225.91 118.45 226.79C117.99 226.69 117.5 226.63 117 226.63C113.83 226.63 111.25 228.97 111.25 231.85C111.25 234.74 113.83 237.08 117 237.08C117.27 237.08 119.43 237.08 119.7 237.08C119.67 236.51 119.65 235.94 119.65 235.37C119.65 231.78 120.26 228.32 121.38 225.07Z" id="ju3BiStk9"></path><path d="M170.19 258.8C169.1 257.36 167.26 256.42 165.19 256.42C164.52 256.42 163.87 256.52 163.27 256.7C162.24 252.6 158.21 249.53 153.38 249.53C147.79 249.53 143.25 253.65 143.25 258.74C143.25 258.85 143.25 258.95 143.26 259.05C142.55 258.85 141.79 258.74 141 258.74C136.84 258.74 133.47 261.81 133.47 265.59C133.47 269.37 136.84 272.44 141 272.44C142.51 272.44 150.03 272.44 163.56 272.44L167.75 272.44C170.36 272.44 171.82 272.44 172.11 272.44C176.32 272.44 179.73 269.34 179.73 265.51C179.73 261.68 176.32 258.58 172.11 258.58C171.45 258.58 170.8 258.66 170.19 258.8Z" id="d4up86B3nP"></path><path d="M150.65 249.87C146.38 250.95 143.25 254.51 143.25 258.74C143.25 258.85 143.25 258.95 143.26 259.05C142.55 258.85 141.79 258.74 141 258.74C136.84 258.74 133.47 261.81 133.47 265.59C133.47 269.37 136.84 272.44 141 272.44C142.92 272.44 158.23 272.44 160.15 272.44C153.6 269.76 149.04 263.77 149.04 256.81C149.04 254.34 149.61 251.99 150.65 249.87Z" id="ap73YR7pb"></path></defs><g><g><use xlink:href="#f61godia80" opacity="1" fill="#76b97e" fill-opacity="1"></use></g><g><use xlink:href="#a18tFp6hgk" opacity="1" fill="#74a2d9" fill-opacity="1"></use><g><use xlink:href="#a18tFp6hgk" opacity="1" fill-opacity="0" stroke="#000000" stroke-width="1" stroke-opacity="0"></use></g></g><g><use xlink:href="#a14C8ZP57" opacity="1" fill="#c8af8f" fill-opacity="1"></use><g><use xlink:href="#a14C8ZP57" opacity="1" fill-opacity="0" stroke="#000000" stroke-width="1" stroke-opacity="0"></use></g></g><g><use xlink:href="#i1lxNZ3gik" opacity="1" fill="#db8c74" fill-opacity="1"></use><g><use xlink:href="#i1lxNZ3gik" opacity="1" fill-opacity="0" stroke="#000000" stroke-width="1" stroke-opacity="0"></use></g></g><g><use xlink:href="#h2KT7XrlHw" opacity="1" fill="#62d7c3" fill-opacity="1"></use><g><use xlink:href="#h2KT7XrlHw" opacity="1" fill-opacity="0" stroke="#000000" stroke-width="1" stroke-opacity="0"></use></g></g><g><use xlink:href="#ew4RFA1nK" opacity="1" fill="#48a187" fill-opacity="1"></use><g><use xlink:href="#ew4RFA1nK" opacity="1" fill-opacity="0" stroke="#000000" stroke-width="1" stroke-opacity="0"></use></g></g><g><use xlink:href="#b19hLMUcUX" opacity="1" fill="#f8e8ce" fill-opacity="1"></use><g><use xlink:href="#b19hLMUcUX" opacity="1" fill-opacity="0" stroke="#000000" stroke-width="1" stroke-opacity="0"></use></g></g><g><use xlink:href="#agbgxSU0z" opacity="1" fill="#f8e8ce" fill-opacity="1"></use><g><use xlink:href="#agbgxSU0z" opacity="1" fill-opacity="0" stroke="#000000" stroke-width="1" stroke-opacity="0"></use></g></g><g><use xlink:href="#b10JPVOytw" opacity="1" fill="#c8af8f" fill-opacity="1"></use><g><use xlink:href="#b10JPVOytw" opacity="1" fill-opacity="0" stroke="#000000" stroke-width="1" stroke-opacity="0"></use></g></g><g><use xlink:href="#cTIYF4Zc3" opacity="1" fill="#733a10" fill-opacity="1"></use><g><use xlink:href="#cTIYF4Zc3" opacity="1" fill-opacity="0" stroke="#000000" stroke-width="1" stroke-opacity="0"></use></g></g><g><use xlink:href="#eE5awVp0A" opacity="1" fill="#8c4815" fill-opacity="1"></use><g><use xlink:href="#eE5awVp0A" opacity="1" fill-opacity="0" stroke="#000000" stroke-width="1" stroke-opacity="0"></use></g></g><g><use xlink:href="#eqKRM8Kp3" opacity="1" fill="#a35418" fill-opacity="1"></use><g><use xlink:href="#eqKRM8Kp3" opacity="1" fill-opacity="0" stroke="#000000" stroke-width="1" stroke-opacity="0"></use></g></g><g><use xlink:href="#aS5SEDsod" opacity="1" fill="#bf6724" fill-opacity="1"></use><g><use xlink:href="#aS5SEDsod" opacity="1" fill-opacity="0" stroke="#000000" stroke-width="1" stroke-opacity="0"></use></g></g><g><use xlink:href="#a2BuV1mZF6" opacity="1" fill="#ffa000" fill-opacity="1"></use><g><use xlink:href="#a2BuV1mZF6" opacity="1" fill-opacity="0" stroke="#000000" stroke-width="1" stroke-opacity="0"></use></g></g><g><use xlink:href="#aiUSbyrHB" opacity="1" fill="#f57f17" fill-opacity="1"></use><g><use xlink:href="#aiUSbyrHB" opacity="1" fill-opacity="0" stroke="#000000" stroke-width="1" stroke-opacity="0"></use></g></g><g><use xlink:href="#b1K3oPaCmi" opacity="1" fill="#ffca28" fill-opacity="1"></use><g><use xlink:href="#b1K3oPaCmi" opacity="1" fill-opacity="0" stroke="#000000" stroke-width="1" stroke-opacity="0"></use></g></g><g><use xlink:href="#e10elADZQn" opacity="1" fill="#ffb300" fill-opacity="1"></use><g><use xlink:href="#e10elADZQn" opacity="1" fill-opacity="0" stroke="#000000" stroke-width="1" stroke-opacity="0"></use></g></g><g><use xlink:href="#gubvVhr2d" opacity="1" fill="#ffca28" fill-opacity="1"></use><g><use xlink:href="#gubvVhr2d" opacity="1" fill-opacity="0" stroke="#000000" stroke-width="1" stroke-opacity="0"></use></g></g><g><use xlink:href="#cuDvWHqEl" opacity="1" fill="#ffb300" fill-opacity="1"></use><g><use xlink:href="#cuDvWHqEl" opacity="1" fill-opacity="0" stroke="#000000" stroke-width="1" stroke-opacity="0"></use></g></g><g><use xlink:href="#b2YNH6JDBp" opacity="1" fill="#bf6724" fill-opacity="1"></use><g><use xlink:href="#b2YNH6JDBp" opacity="1" fill-opacity="0" stroke="#000000" stroke-width="1" stroke-opacity="0"></use></g></g><g><use xlink:href="#a1TuvcfuOP" opacity="1" fill="#bf6724" fill-opacity="1"></use><g><use xlink:href="#a1TuvcfuOP" opacity="1" fill-opacity="0" stroke="#000000" stroke-width="1" stroke-opacity="0"></use></g></g><g><use xlink:href="#cevezpXML" opacity="1" fill="#9fdef7" fill-opacity="1"></use><g><use xlink:href="#cevezpXML" opacity="1" fill-opacity="0" stroke="#000000" stroke-width="1" stroke-opacity="0"></use></g></g><g><use xlink:href="#c16SK6DcwZ" opacity="1" fill="#beeafc" fill-opacity="1"></use><g><use xlink:href="#c16SK6DcwZ" opacity="1" fill-opacity="0" stroke="#000000" stroke-width="1" stroke-opacity="0"></use></g></g><g><use xlink:href="#b4Ty2JD3yf" opacity="1" fill="#aee4ff" fill-opacity="1"></use><g><use xlink:href="#b4Ty2JD3yf" opacity="1" fill-opacity="0" stroke="#000000" stroke-width="1" stroke-opacity="0"></use></g></g><g><use xlink:href="#ju3BiStk9" opacity="1" fill="#83d4ed" fill-opacity="1"></use><g><use xlink:href="#ju3BiStk9" opacity="1" fill-opacity="0" stroke="#000000" stroke-width="1" stroke-opacity="0"></use></g></g><g><use xlink:href="#d4up86B3nP" opacity="1" fill="#e4f2f9" fill-opacity="1"></use><g><use xlink:href="#d4up86B3nP" opacity="1" fill-opacity="0" stroke="#000000" stroke-width="1" stroke-opacity="0"></use></g></g><g><use xlink:href="#ap73YR7pb" opacity="1" fill="#d7edf9" fill-opacity="1"></use><g><use xlink:href="#ap73YR7pb" opacity="1" fill-opacity="0" stroke="#000000" stroke-width="1" stroke-opacity="0"></use></g></g></g></svg>